<mxfile host="Electron" agent="Mozilla/5.0 (Macintosh; Intel Mac OS X 10_15_7) AppleWebKit/537.36 (KHTML, like Gecko) draw.io/26.1.1 Chrome/132.0.6834.210 Electron/34.3.3 Safari/537.36" version="26.1.1">
  <diagram name="Page-1" id="hlslKav_G_rOA45PgTTR">
    <mxGraphModel dx="810" dy="1565" grid="1" gridSize="10" guides="1" tooltips="1" connect="1" arrows="1" fold="1" page="1" pageScale="1" pageWidth="850" pageHeight="1100" math="0" shadow="0">
      <root>
        <mxCell id="0" />
        <mxCell id="1" parent="0" />
        <mxCell id="m5bq8eYCIO6W1Ep3dTQl-1" value="Borrower" style="shape=umlActor;verticalLabelPosition=bottom;verticalAlign=top;html=1;" vertex="1" parent="1">
          <mxGeometry x="240" y="190" width="30" height="60" as="geometry" />
        </mxCell>
        <mxCell id="m5bq8eYCIO6W1Ep3dTQl-2" value="Library Manager" style="shape=umlActor;verticalLabelPosition=bottom;verticalAlign=top;html=1;" vertex="1" parent="1">
          <mxGeometry x="240" y="80" width="30" height="60" as="geometry" />
        </mxCell>
        <mxCell id="m5bq8eYCIO6W1Ep3dTQl-22" value="" style="html=1;whiteSpace=wrap;" vertex="1" parent="1">
          <mxGeometry x="385" y="-170" width="465" height="660" as="geometry" />
        </mxCell>
        <mxCell id="m5bq8eYCIO6W1Ep3dTQl-23" value="" style="endArrow=none;html=1;rounded=0;entryX=0;entryY=0.5;entryDx=0;entryDy=0;" edge="1" parent="1" target="m5bq8eYCIO6W1Ep3dTQl-51">
          <mxGeometry width="50" height="50" relative="1" as="geometry">
            <mxPoint x="300" y="119" as="sourcePoint" />
            <mxPoint x="395" y="123" as="targetPoint" />
          </mxGeometry>
        </mxCell>
        <mxCell id="m5bq8eYCIO6W1Ep3dTQl-24" value="&lt;font style=&quot;font-size: 15px;&quot;&gt;&lt;b&gt;*&lt;/b&gt;&lt;/font&gt;" style="edgeLabel;html=1;align=center;verticalAlign=middle;resizable=0;points=[];" vertex="1" connectable="0" parent="m5bq8eYCIO6W1Ep3dTQl-23">
          <mxGeometry x="-0.5012" y="3" relative="1" as="geometry">
            <mxPoint as="offset" />
          </mxGeometry>
        </mxCell>
        <mxCell id="m5bq8eYCIO6W1Ep3dTQl-25" value="&lt;font style=&quot;font-size: 15px;&quot;&gt;&lt;b&gt;*&lt;/b&gt;&lt;/font&gt;" style="edgeLabel;html=1;align=center;verticalAlign=middle;resizable=0;points=[];" vertex="1" connectable="0" parent="m5bq8eYCIO6W1Ep3dTQl-23">
          <mxGeometry x="0.5613" y="1" relative="1" as="geometry">
            <mxPoint as="offset" />
          </mxGeometry>
        </mxCell>
        <mxCell id="m5bq8eYCIO6W1Ep3dTQl-26" value="" style="endArrow=none;html=1;rounded=0;entryX=0;entryY=0.5;entryDx=0;entryDy=0;" edge="1" parent="1" target="m5bq8eYCIO6W1Ep3dTQl-29">
          <mxGeometry width="50" height="50" relative="1" as="geometry">
            <mxPoint x="280" y="220" as="sourcePoint" />
            <mxPoint x="395" y="185" as="targetPoint" />
          </mxGeometry>
        </mxCell>
        <mxCell id="m5bq8eYCIO6W1Ep3dTQl-27" value="&lt;font style=&quot;font-size: 15px;&quot;&gt;&lt;b&gt;*&lt;/b&gt;&lt;/font&gt;" style="edgeLabel;html=1;align=center;verticalAlign=middle;resizable=0;points=[];" vertex="1" connectable="0" parent="m5bq8eYCIO6W1Ep3dTQl-26">
          <mxGeometry x="-0.5012" y="3" relative="1" as="geometry">
            <mxPoint as="offset" />
          </mxGeometry>
        </mxCell>
        <mxCell id="m5bq8eYCIO6W1Ep3dTQl-28" value="&lt;font style=&quot;font-size: 15px;&quot;&gt;&lt;b&gt;*&lt;/b&gt;&lt;/font&gt;" style="edgeLabel;html=1;align=center;verticalAlign=middle;resizable=0;points=[];" vertex="1" connectable="0" parent="m5bq8eYCIO6W1Ep3dTQl-26">
          <mxGeometry x="0.5613" y="1" relative="1" as="geometry">
            <mxPoint as="offset" />
          </mxGeometry>
        </mxCell>
        <mxCell id="m5bq8eYCIO6W1Ep3dTQl-29" value="Search Book" style="ellipse;whiteSpace=wrap;html=1;" vertex="1" parent="1">
          <mxGeometry x="417.5" y="240" width="110" height="50" as="geometry" />
        </mxCell>
        <mxCell id="m5bq8eYCIO6W1Ep3dTQl-30" value="Request Book" style="ellipse;whiteSpace=wrap;html=1;" vertex="1" parent="1">
          <mxGeometry x="417.5" y="300" width="110" height="50" as="geometry" />
        </mxCell>
        <mxCell id="m5bq8eYCIO6W1Ep3dTQl-31" value="&lt;meta charset=&quot;utf-8&quot;&gt;&lt;span class=&quot;notion-enable-hover&quot; data-token-index=&quot;0&quot; style=&quot;font-weight:600&quot;&gt;Automated University Library Circulation System&lt;/span&gt;" style="text;align=center;fontStyle=1;verticalAlign=middle;spacingLeft=3;spacingRight=3;strokeColor=none;rotatable=0;points=[[0,0.5],[1,0.5]];portConstraint=eastwest;html=1;" vertex="1" parent="1">
          <mxGeometry x="590" y="-140" width="80" height="26" as="geometry" />
        </mxCell>
        <mxCell id="m5bq8eYCIO6W1Ep3dTQl-32" value="Check Out Book" style="ellipse;whiteSpace=wrap;html=1;" vertex="1" parent="1">
          <mxGeometry x="422.5" y="370" width="110" height="50" as="geometry" />
        </mxCell>
        <mxCell id="m5bq8eYCIO6W1Ep3dTQl-33" value="&amp;lt;&amp;lt;actor&amp;gt;&amp;gt;&lt;br&gt;Registrar System" style="html=1;whiteSpace=wrap;" vertex="1" parent="1">
          <mxGeometry x="900" y="390" width="110" height="50" as="geometry" />
        </mxCell>
        <mxCell id="m5bq8eYCIO6W1Ep3dTQl-34" value="" style="endArrow=none;html=1;rounded=0;entryX=0;entryY=0.5;entryDx=0;entryDy=0;" edge="1" parent="1" target="m5bq8eYCIO6W1Ep3dTQl-30">
          <mxGeometry width="50" height="50" relative="1" as="geometry">
            <mxPoint x="280" y="220" as="sourcePoint" />
            <mxPoint x="400" y="217.5" as="targetPoint" />
          </mxGeometry>
        </mxCell>
        <mxCell id="m5bq8eYCIO6W1Ep3dTQl-35" value="&lt;font style=&quot;font-size: 15px;&quot;&gt;&lt;b&gt;*&lt;/b&gt;&lt;/font&gt;" style="edgeLabel;html=1;align=center;verticalAlign=middle;resizable=0;points=[];" vertex="1" connectable="0" parent="m5bq8eYCIO6W1Ep3dTQl-34">
          <mxGeometry x="-0.5012" y="3" relative="1" as="geometry">
            <mxPoint as="offset" />
          </mxGeometry>
        </mxCell>
        <mxCell id="m5bq8eYCIO6W1Ep3dTQl-36" value="&lt;font style=&quot;font-size: 15px;&quot;&gt;&lt;b&gt;*&lt;/b&gt;&lt;/font&gt;" style="edgeLabel;html=1;align=center;verticalAlign=middle;resizable=0;points=[];" vertex="1" connectable="0" parent="m5bq8eYCIO6W1Ep3dTQl-34">
          <mxGeometry x="0.5613" y="1" relative="1" as="geometry">
            <mxPoint as="offset" />
          </mxGeometry>
        </mxCell>
        <mxCell id="m5bq8eYCIO6W1Ep3dTQl-37" value="" style="endArrow=none;html=1;rounded=0;entryX=0;entryY=0.5;entryDx=0;entryDy=0;" edge="1" parent="1" target="m5bq8eYCIO6W1Ep3dTQl-32">
          <mxGeometry width="50" height="50" relative="1" as="geometry">
            <mxPoint x="277.5" y="220" as="sourcePoint" />
            <mxPoint x="397.5" y="275" as="targetPoint" />
          </mxGeometry>
        </mxCell>
        <mxCell id="m5bq8eYCIO6W1Ep3dTQl-38" value="&lt;font style=&quot;font-size: 15px;&quot;&gt;&lt;b&gt;*&lt;/b&gt;&lt;/font&gt;" style="edgeLabel;html=1;align=center;verticalAlign=middle;resizable=0;points=[];" vertex="1" connectable="0" parent="m5bq8eYCIO6W1Ep3dTQl-37">
          <mxGeometry x="-0.5012" y="3" relative="1" as="geometry">
            <mxPoint as="offset" />
          </mxGeometry>
        </mxCell>
        <mxCell id="m5bq8eYCIO6W1Ep3dTQl-39" value="&lt;font style=&quot;font-size: 15px;&quot;&gt;&lt;b&gt;*&lt;/b&gt;&lt;/font&gt;" style="edgeLabel;html=1;align=center;verticalAlign=middle;resizable=0;points=[];" vertex="1" connectable="0" parent="m5bq8eYCIO6W1Ep3dTQl-37">
          <mxGeometry x="0.5613" y="1" relative="1" as="geometry">
            <mxPoint as="offset" />
          </mxGeometry>
        </mxCell>
        <mxCell id="m5bq8eYCIO6W1Ep3dTQl-40" value="" style="endArrow=none;html=1;rounded=0;entryX=0;entryY=0.5;entryDx=0;entryDy=0;exitX=1;exitY=0.5;exitDx=0;exitDy=0;" edge="1" parent="1" source="m5bq8eYCIO6W1Ep3dTQl-47" target="m5bq8eYCIO6W1Ep3dTQl-33">
          <mxGeometry width="50" height="50" relative="1" as="geometry">
            <mxPoint x="507.5" y="335" as="sourcePoint" />
            <mxPoint x="625.5" y="330" as="targetPoint" />
          </mxGeometry>
        </mxCell>
        <mxCell id="m5bq8eYCIO6W1Ep3dTQl-41" value="&lt;font style=&quot;font-size: 15px;&quot;&gt;&lt;b&gt;*&lt;/b&gt;&lt;/font&gt;" style="edgeLabel;html=1;align=center;verticalAlign=middle;resizable=0;points=[];" vertex="1" connectable="0" parent="m5bq8eYCIO6W1Ep3dTQl-40">
          <mxGeometry x="-0.5012" y="3" relative="1" as="geometry">
            <mxPoint as="offset" />
          </mxGeometry>
        </mxCell>
        <mxCell id="m5bq8eYCIO6W1Ep3dTQl-42" value="&lt;font style=&quot;font-size: 15px;&quot;&gt;&lt;b&gt;*&lt;/b&gt;&lt;/font&gt;" style="edgeLabel;html=1;align=center;verticalAlign=middle;resizable=0;points=[];" vertex="1" connectable="0" parent="m5bq8eYCIO6W1Ep3dTQl-40">
          <mxGeometry x="0.5613" y="1" relative="1" as="geometry">
            <mxPoint as="offset" />
          </mxGeometry>
        </mxCell>
        <mxCell id="m5bq8eYCIO6W1Ep3dTQl-43" value="&amp;lt;&amp;lt;actor&amp;gt;&amp;gt;&lt;br&gt;Personnel System" style="html=1;whiteSpace=wrap;" vertex="1" parent="1">
          <mxGeometry x="900" y="320" width="110" height="50" as="geometry" />
        </mxCell>
        <mxCell id="m5bq8eYCIO6W1Ep3dTQl-44" value="" style="endArrow=none;html=1;rounded=0;entryX=0;entryY=0.5;entryDx=0;entryDy=0;exitX=0.969;exitY=0.386;exitDx=0;exitDy=0;exitPerimeter=0;" edge="1" parent="1" source="m5bq8eYCIO6W1Ep3dTQl-47" target="m5bq8eYCIO6W1Ep3dTQl-43">
          <mxGeometry width="50" height="50" relative="1" as="geometry">
            <mxPoint x="580" y="310" as="sourcePoint" />
            <mxPoint x="630" y="320" as="targetPoint" />
          </mxGeometry>
        </mxCell>
        <mxCell id="m5bq8eYCIO6W1Ep3dTQl-45" value="&lt;font style=&quot;font-size: 15px;&quot;&gt;&lt;b&gt;*&lt;/b&gt;&lt;/font&gt;" style="edgeLabel;html=1;align=center;verticalAlign=middle;resizable=0;points=[];" vertex="1" connectable="0" parent="m5bq8eYCIO6W1Ep3dTQl-44">
          <mxGeometry x="-0.5012" y="3" relative="1" as="geometry">
            <mxPoint as="offset" />
          </mxGeometry>
        </mxCell>
        <mxCell id="m5bq8eYCIO6W1Ep3dTQl-46" value="&lt;font style=&quot;font-size: 15px;&quot;&gt;&lt;b&gt;*&lt;/b&gt;&lt;/font&gt;" style="edgeLabel;html=1;align=center;verticalAlign=middle;resizable=0;points=[];" vertex="1" connectable="0" parent="m5bq8eYCIO6W1Ep3dTQl-44">
          <mxGeometry x="0.5613" y="1" relative="1" as="geometry">
            <mxPoint as="offset" />
          </mxGeometry>
        </mxCell>
        <mxCell id="m5bq8eYCIO6W1Ep3dTQl-47" value="Validate Borrowing" style="ellipse;whiteSpace=wrap;html=1;" vertex="1" parent="1">
          <mxGeometry x="630" y="360" width="130" height="50" as="geometry" />
        </mxCell>
        <mxCell id="m5bq8eYCIO6W1Ep3dTQl-48" value="&amp;lt;&amp;lt;include&amp;gt;&amp;gt;" style="html=1;verticalAlign=bottom;endArrow=open;dashed=1;endSize=8;curved=0;rounded=0;exitX=1;exitY=0.5;exitDx=0;exitDy=0;entryX=0;entryY=0.5;entryDx=0;entryDy=0;" edge="1" parent="1" source="m5bq8eYCIO6W1Ep3dTQl-32" target="m5bq8eYCIO6W1Ep3dTQl-47">
          <mxGeometry relative="1" as="geometry">
            <mxPoint x="600" y="324.62" as="sourcePoint" />
            <mxPoint x="520" y="324.62" as="targetPoint" />
          </mxGeometry>
        </mxCell>
        <mxCell id="m5bq8eYCIO6W1Ep3dTQl-49" value="&amp;lt;&amp;lt;extend&amp;gt;&amp;gt;" style="html=1;verticalAlign=bottom;endArrow=open;dashed=1;endSize=8;curved=0;rounded=0;entryX=0.5;entryY=1;entryDx=0;entryDy=0;exitX=0.5;exitY=1;exitDx=0;exitDy=0;" edge="1" parent="1" source="m5bq8eYCIO6W1Ep3dTQl-90" target="m5bq8eYCIO6W1Ep3dTQl-80">
          <mxGeometry relative="1" as="geometry">
            <mxPoint x="170" y="530" as="sourcePoint" />
            <mxPoint x="270" y="530.31" as="targetPoint" />
            <mxPoint as="offset" />
          </mxGeometry>
        </mxCell>
        <mxCell id="m5bq8eYCIO6W1Ep3dTQl-50" value="" style="endArrow=block;endSize=16;endFill=0;html=1;rounded=0;" edge="1" parent="1">
          <mxGeometry width="160" relative="1" as="geometry">
            <mxPoint x="220" y="620" as="sourcePoint" />
            <mxPoint x="220" y="560" as="targetPoint" />
          </mxGeometry>
        </mxCell>
        <mxCell id="m5bq8eYCIO6W1Ep3dTQl-51" value="Add Book" style="ellipse;whiteSpace=wrap;html=1;" vertex="1" parent="1">
          <mxGeometry x="407.5" y="-100" width="110" height="50" as="geometry" />
        </mxCell>
        <mxCell id="m5bq8eYCIO6W1Ep3dTQl-52" value="Remove Book" style="ellipse;whiteSpace=wrap;html=1;" vertex="1" parent="1">
          <mxGeometry x="407.5" y="-40" width="110" height="50" as="geometry" />
        </mxCell>
        <mxCell id="m5bq8eYCIO6W1Ep3dTQl-53" value="" style="endArrow=none;html=1;rounded=0;entryX=0;entryY=0.5;entryDx=0;entryDy=0;" edge="1" parent="1" target="m5bq8eYCIO6W1Ep3dTQl-52">
          <mxGeometry width="50" height="50" relative="1" as="geometry">
            <mxPoint x="300" y="120" as="sourcePoint" />
            <mxPoint x="420" y="75" as="targetPoint" />
          </mxGeometry>
        </mxCell>
        <mxCell id="m5bq8eYCIO6W1Ep3dTQl-54" value="&lt;font style=&quot;font-size: 15px;&quot;&gt;&lt;b&gt;*&lt;/b&gt;&lt;/font&gt;" style="edgeLabel;html=1;align=center;verticalAlign=middle;resizable=0;points=[];" vertex="1" connectable="0" parent="m5bq8eYCIO6W1Ep3dTQl-53">
          <mxGeometry x="-0.5012" y="3" relative="1" as="geometry">
            <mxPoint as="offset" />
          </mxGeometry>
        </mxCell>
        <mxCell id="m5bq8eYCIO6W1Ep3dTQl-55" value="&lt;font style=&quot;font-size: 15px;&quot;&gt;&lt;b&gt;*&lt;/b&gt;&lt;/font&gt;" style="edgeLabel;html=1;align=center;verticalAlign=middle;resizable=0;points=[];" vertex="1" connectable="0" parent="m5bq8eYCIO6W1Ep3dTQl-53">
          <mxGeometry x="0.5613" y="1" relative="1" as="geometry">
            <mxPoint as="offset" />
          </mxGeometry>
        </mxCell>
        <mxCell id="m5bq8eYCIO6W1Ep3dTQl-56" value="Return Book" style="ellipse;whiteSpace=wrap;html=1;" vertex="1" parent="1">
          <mxGeometry x="417.5" y="430" width="110" height="50" as="geometry" />
        </mxCell>
        <mxCell id="m5bq8eYCIO6W1Ep3dTQl-57" value="" style="endArrow=none;html=1;rounded=0;entryX=0;entryY=0.5;entryDx=0;entryDy=0;" edge="1" parent="1" target="m5bq8eYCIO6W1Ep3dTQl-56">
          <mxGeometry width="50" height="50" relative="1" as="geometry">
            <mxPoint x="278" y="220" as="sourcePoint" />
            <mxPoint x="425.5" y="355" as="targetPoint" />
          </mxGeometry>
        </mxCell>
        <mxCell id="m5bq8eYCIO6W1Ep3dTQl-58" value="&lt;font style=&quot;font-size: 15px;&quot;&gt;&lt;b&gt;*&lt;/b&gt;&lt;/font&gt;" style="edgeLabel;html=1;align=center;verticalAlign=middle;resizable=0;points=[];" vertex="1" connectable="0" parent="m5bq8eYCIO6W1Ep3dTQl-57">
          <mxGeometry x="-0.5012" y="3" relative="1" as="geometry">
            <mxPoint as="offset" />
          </mxGeometry>
        </mxCell>
        <mxCell id="m5bq8eYCIO6W1Ep3dTQl-59" value="&lt;font style=&quot;font-size: 15px;&quot;&gt;&lt;b&gt;*&lt;/b&gt;&lt;/font&gt;" style="edgeLabel;html=1;align=center;verticalAlign=middle;resizable=0;points=[];" vertex="1" connectable="0" parent="m5bq8eYCIO6W1Ep3dTQl-57">
          <mxGeometry x="0.5613" y="1" relative="1" as="geometry">
            <mxPoint as="offset" />
          </mxGeometry>
        </mxCell>
        <mxCell id="m5bq8eYCIO6W1Ep3dTQl-60" value="&amp;lt;&amp;lt;include&amp;gt;&amp;gt;" style="html=1;verticalAlign=bottom;endArrow=open;dashed=1;endSize=8;curved=0;rounded=0;entryX=0;entryY=0.6;entryDx=0;entryDy=0;entryPerimeter=0;" edge="1" parent="1" target="m5bq8eYCIO6W1Ep3dTQl-61">
          <mxGeometry relative="1" as="geometry">
            <mxPoint x="530" y="320" as="sourcePoint" />
            <mxPoint x="615" y="240" as="targetPoint" />
          </mxGeometry>
        </mxCell>
        <mxCell id="m5bq8eYCIO6W1Ep3dTQl-61" value="Notify Availability" style="ellipse;whiteSpace=wrap;html=1;" vertex="1" parent="1">
          <mxGeometry x="620" y="270" width="130" height="50" as="geometry" />
        </mxCell>
        <mxCell id="m5bq8eYCIO6W1Ep3dTQl-62" value="&amp;lt;&amp;lt;actor&amp;gt;&amp;gt;&lt;br&gt;Email Service" style="html=1;whiteSpace=wrap;" vertex="1" parent="1">
          <mxGeometry x="900" y="240" width="110" height="50" as="geometry" />
        </mxCell>
        <mxCell id="m5bq8eYCIO6W1Ep3dTQl-63" value="" style="endArrow=none;html=1;rounded=0;entryX=0;entryY=0.5;entryDx=0;entryDy=0;exitX=1;exitY=0.5;exitDx=0;exitDy=0;" edge="1" parent="1" source="m5bq8eYCIO6W1Ep3dTQl-61" target="m5bq8eYCIO6W1Ep3dTQl-62">
          <mxGeometry width="50" height="50" relative="1" as="geometry">
            <mxPoint x="740" y="220" as="sourcePoint" />
            <mxPoint x="884" y="156" as="targetPoint" />
          </mxGeometry>
        </mxCell>
        <mxCell id="m5bq8eYCIO6W1Ep3dTQl-64" value="&lt;font style=&quot;font-size: 15px;&quot;&gt;&lt;b&gt;*&lt;/b&gt;&lt;/font&gt;" style="edgeLabel;html=1;align=center;verticalAlign=middle;resizable=0;points=[];" vertex="1" connectable="0" parent="m5bq8eYCIO6W1Ep3dTQl-63">
          <mxGeometry x="-0.5012" y="3" relative="1" as="geometry">
            <mxPoint as="offset" />
          </mxGeometry>
        </mxCell>
        <mxCell id="m5bq8eYCIO6W1Ep3dTQl-65" value="&lt;font style=&quot;font-size: 15px;&quot;&gt;&lt;b&gt;*&lt;/b&gt;&lt;/font&gt;" style="edgeLabel;html=1;align=center;verticalAlign=middle;resizable=0;points=[];" vertex="1" connectable="0" parent="m5bq8eYCIO6W1Ep3dTQl-63">
          <mxGeometry x="0.5613" y="1" relative="1" as="geometry">
            <mxPoint as="offset" />
          </mxGeometry>
        </mxCell>
        <mxCell id="m5bq8eYCIO6W1Ep3dTQl-67" value="Check Borrower Status" style="ellipse;whiteSpace=wrap;html=1;" vertex="1" parent="1">
          <mxGeometry x="402.5" y="30" width="140" height="50" as="geometry" />
        </mxCell>
        <mxCell id="m5bq8eYCIO6W1Ep3dTQl-69" value="" style="endArrow=none;html=1;rounded=0;entryX=0;entryY=0.5;entryDx=0;entryDy=0;" edge="1" parent="1" target="m5bq8eYCIO6W1Ep3dTQl-67">
          <mxGeometry width="50" height="50" relative="1" as="geometry">
            <mxPoint x="300" y="117.5" as="sourcePoint" />
            <mxPoint x="410" y="102.5" as="targetPoint" />
          </mxGeometry>
        </mxCell>
        <mxCell id="m5bq8eYCIO6W1Ep3dTQl-70" value="&lt;font style=&quot;font-size: 15px;&quot;&gt;&lt;b&gt;*&lt;/b&gt;&lt;/font&gt;" style="edgeLabel;html=1;align=center;verticalAlign=middle;resizable=0;points=[];" vertex="1" connectable="0" parent="m5bq8eYCIO6W1Ep3dTQl-69">
          <mxGeometry x="-0.5012" y="3" relative="1" as="geometry">
            <mxPoint as="offset" />
          </mxGeometry>
        </mxCell>
        <mxCell id="m5bq8eYCIO6W1Ep3dTQl-71" value="&lt;font style=&quot;font-size: 15px;&quot;&gt;&lt;b&gt;*&lt;/b&gt;&lt;/font&gt;" style="edgeLabel;html=1;align=center;verticalAlign=middle;resizable=0;points=[];" vertex="1" connectable="0" parent="m5bq8eYCIO6W1Ep3dTQl-69">
          <mxGeometry x="0.5613" y="1" relative="1" as="geometry">
            <mxPoint as="offset" />
          </mxGeometry>
        </mxCell>
        <mxCell id="m5bq8eYCIO6W1Ep3dTQl-72" value="Update Book Status" style="ellipse;whiteSpace=wrap;html=1;" vertex="1" parent="1">
          <mxGeometry x="407.5" y="100" width="130" height="50" as="geometry" />
        </mxCell>
        <mxCell id="m5bq8eYCIO6W1Ep3dTQl-73" value="" style="endArrow=none;html=1;rounded=0;entryX=0;entryY=0.5;entryDx=0;entryDy=0;" edge="1" parent="1" target="m5bq8eYCIO6W1Ep3dTQl-72">
          <mxGeometry width="50" height="50" relative="1" as="geometry">
            <mxPoint x="300" y="120" as="sourcePoint" />
            <mxPoint x="405" y="97.5" as="targetPoint" />
          </mxGeometry>
        </mxCell>
        <mxCell id="m5bq8eYCIO6W1Ep3dTQl-74" value="&lt;font style=&quot;font-size: 15px;&quot;&gt;&lt;b&gt;*&lt;/b&gt;&lt;/font&gt;" style="edgeLabel;html=1;align=center;verticalAlign=middle;resizable=0;points=[];" vertex="1" connectable="0" parent="m5bq8eYCIO6W1Ep3dTQl-73">
          <mxGeometry x="-0.5012" y="3" relative="1" as="geometry">
            <mxPoint as="offset" />
          </mxGeometry>
        </mxCell>
        <mxCell id="m5bq8eYCIO6W1Ep3dTQl-75" value="&lt;font style=&quot;font-size: 15px;&quot;&gt;&lt;b&gt;*&lt;/b&gt;&lt;/font&gt;" style="edgeLabel;html=1;align=center;verticalAlign=middle;resizable=0;points=[];" vertex="1" connectable="0" parent="m5bq8eYCIO6W1Ep3dTQl-73">
          <mxGeometry x="0.5613" y="1" relative="1" as="geometry">
            <mxPoint as="offset" />
          </mxGeometry>
        </mxCell>
        <mxCell id="m5bq8eYCIO6W1Ep3dTQl-76" value="Assess Fine" style="ellipse;whiteSpace=wrap;html=1;" vertex="1" parent="1">
          <mxGeometry x="620" y="-50" width="130" height="50" as="geometry" />
        </mxCell>
        <mxCell id="m5bq8eYCIO6W1Ep3dTQl-77" value="&amp;lt;&amp;lt;include&amp;gt;&amp;gt;" style="html=1;verticalAlign=bottom;endArrow=open;dashed=1;endSize=8;curved=0;rounded=0;entryX=0;entryY=0.5;entryDx=0;entryDy=0;exitX=0.959;exitY=0.395;exitDx=0;exitDy=0;exitPerimeter=0;" edge="1" parent="1" target="m5bq8eYCIO6W1Ep3dTQl-76">
          <mxGeometry relative="1" as="geometry">
            <mxPoint x="542.5" y="50" as="sourcePoint" />
            <mxPoint x="629.5" y="-40" as="targetPoint" />
          </mxGeometry>
        </mxCell>
        <mxCell id="m5bq8eYCIO6W1Ep3dTQl-78" value="" style="endArrow=block;endSize=16;endFill=0;html=1;rounded=0;" edge="1" parent="1">
          <mxGeometry width="160" relative="1" as="geometry">
            <mxPoint x="685" y="30" as="sourcePoint" />
            <mxPoint x="684.52" as="targetPoint" />
          </mxGeometry>
        </mxCell>
        <mxCell id="m5bq8eYCIO6W1Ep3dTQl-79" value="" style="endArrow=none;html=1;rounded=0;" edge="1" parent="1">
          <mxGeometry width="50" height="50" relative="1" as="geometry">
            <mxPoint x="620" y="30" as="sourcePoint" />
            <mxPoint x="740" y="30" as="targetPoint" />
          </mxGeometry>
        </mxCell>
        <mxCell id="m5bq8eYCIO6W1Ep3dTQl-80" value="Assess Damage Fine" style="ellipse;whiteSpace=wrap;html=1;" vertex="1" parent="1">
          <mxGeometry x="552.5" y="50" width="130" height="50" as="geometry" />
        </mxCell>
        <mxCell id="m5bq8eYCIO6W1Ep3dTQl-82" value="Assess Overdue Fine" style="ellipse;whiteSpace=wrap;html=1;" vertex="1" parent="1">
          <mxGeometry x="690" y="50" width="130" height="50" as="geometry" />
        </mxCell>
        <mxCell id="m5bq8eYCIO6W1Ep3dTQl-83" value="" style="endArrow=none;html=1;rounded=0;" edge="1" parent="1">
          <mxGeometry width="50" height="50" relative="1" as="geometry">
            <mxPoint x="620" y="50" as="sourcePoint" />
            <mxPoint x="620" y="30" as="targetPoint" />
          </mxGeometry>
        </mxCell>
        <mxCell id="m5bq8eYCIO6W1Ep3dTQl-84" value="" style="endArrow=none;html=1;rounded=0;" edge="1" parent="1">
          <mxGeometry width="50" height="50" relative="1" as="geometry">
            <mxPoint x="740" y="50" as="sourcePoint" />
            <mxPoint x="740" y="30" as="targetPoint" />
          </mxGeometry>
        </mxCell>
        <mxCell id="m5bq8eYCIO6W1Ep3dTQl-86" value="&amp;lt;&amp;lt;include&amp;gt;&amp;gt;" style="html=1;verticalAlign=bottom;endArrow=open;dashed=1;endSize=8;curved=0;rounded=0;entryX=0.5;entryY=0;entryDx=0;entryDy=0;exitX=0.5;exitY=1;exitDx=0;exitDy=0;" edge="1" parent="1" source="m5bq8eYCIO6W1Ep3dTQl-82" target="m5bq8eYCIO6W1Ep3dTQl-87">
          <mxGeometry relative="1" as="geometry">
            <mxPoint x="680" y="140" as="sourcePoint" />
            <mxPoint x="770" y="120" as="targetPoint" />
          </mxGeometry>
        </mxCell>
        <mxCell id="m5bq8eYCIO6W1Ep3dTQl-87" value="Send Overdue Reminders" style="ellipse;whiteSpace=wrap;html=1;" vertex="1" parent="1">
          <mxGeometry x="710" y="160" width="130" height="50" as="geometry" />
        </mxCell>
        <mxCell id="m5bq8eYCIO6W1Ep3dTQl-89" value="&amp;lt;&amp;lt;extend&amp;gt;&amp;gt;" style="html=1;verticalAlign=bottom;endArrow=open;dashed=1;endSize=8;curved=0;rounded=0;" edge="1" parent="1">
          <mxGeometry relative="1" as="geometry">
            <mxPoint x="180" y="540" as="sourcePoint" />
            <mxPoint x="280" y="540.31" as="targetPoint" />
            <mxPoint as="offset" />
          </mxGeometry>
        </mxCell>
        <mxCell id="m5bq8eYCIO6W1Ep3dTQl-90" value="Evaluate Book Repair" style="ellipse;whiteSpace=wrap;html=1;" vertex="1" parent="1">
          <mxGeometry x="500" y="170" width="130" height="50" as="geometry" />
        </mxCell>
        <mxCell id="m5bq8eYCIO6W1Ep3dTQl-91" value="" style="endArrow=none;html=1;rounded=0;entryX=0;entryY=0.5;entryDx=0;entryDy=0;exitX=1;exitY=0.5;exitDx=0;exitDy=0;" edge="1" parent="1" source="m5bq8eYCIO6W1Ep3dTQl-87" target="m5bq8eYCIO6W1Ep3dTQl-62">
          <mxGeometry width="50" height="50" relative="1" as="geometry">
            <mxPoint x="760" y="305" as="sourcePoint" />
            <mxPoint x="910" y="275" as="targetPoint" />
          </mxGeometry>
        </mxCell>
        <mxCell id="m5bq8eYCIO6W1Ep3dTQl-92" value="&lt;font style=&quot;font-size: 15px;&quot;&gt;&lt;b&gt;*&lt;/b&gt;&lt;/font&gt;" style="edgeLabel;html=1;align=center;verticalAlign=middle;resizable=0;points=[];" vertex="1" connectable="0" parent="m5bq8eYCIO6W1Ep3dTQl-91">
          <mxGeometry x="-0.5012" y="3" relative="1" as="geometry">
            <mxPoint as="offset" />
          </mxGeometry>
        </mxCell>
        <mxCell id="m5bq8eYCIO6W1Ep3dTQl-93" value="&lt;font style=&quot;font-size: 15px;&quot;&gt;&lt;b&gt;*&lt;/b&gt;&lt;/font&gt;" style="edgeLabel;html=1;align=center;verticalAlign=middle;resizable=0;points=[];" vertex="1" connectable="0" parent="m5bq8eYCIO6W1Ep3dTQl-91">
          <mxGeometry x="0.5613" y="1" relative="1" as="geometry">
            <mxPoint as="offset" />
          </mxGeometry>
        </mxCell>
      </root>
    </mxGraphModel>
  </diagram>
</mxfile>
